# xmcd
#
# Track frame offsets:
#	150
#	17466
#	32016
#	50242
#	64593
#	78875
#	95487
#	105762
#	121212
#	138347
#
# Disc length: 2049 seconds
#
# Revision: 1
# Processed by: cddbd v1.5.2PL0 Copyright (c) Steve Scherf et al.
# Submitted via: audiograbber 1.83.01
#
DISCID=7207ff0a
DTITLE=rc - RC Country VOL 4
DYEAR=1900
DGENRE=
TTITLE0=John Berry - Standing on the edge of goodbye
TTITLE1=Tim McGraw - Just to see you smile
TTITLE2=Kenny Rogers - Lady
TTITLE3=George Strait - Let's fall to pieces together
TTITLE4=Don Williams - Love me over again
TTITLE5=Waylon Jennings - Luckenbach Texas
TTITLE6=Merle Haggard - Mama tried
TTITLE7=George Strait - Meanwhile
TTITLE8=Alan Jackson - Mercury blues
TTITLE9=Charlie Rich - The most beautiful girl
EXTD=
EXTT0=
EXTT1=
EXTT2=
EXTT3=
EXTT4=
EXTT5=
EXTT6=
EXTT7=
EXTT8=
EXTT9=
PLAYORDER=
